<svg xmlns="http://www.w3.org/2000/svg" xmlns:xlink="http://www.w3.org/1999/xlink" width="16" height="14" viewBox="0 0 16 14">
  <defs>
    <style>
      .cls-1 {
        fill: #aaa;
      }

      .cls-2 {
        clip-path: url(#clip-path);
      }
    </style>
    <clipPath id="clip-path">
      <rect id="사각형_282" data-name="사각형 282" class="cls-1" width="16" height="14"/>
    </clipPath>
  </defs>
  <g id="그룹_558" data-name="그룹 558" transform="translate(16 14) rotate(180)">
    <g id="그룹_557" data-name="그룹 557" class="cls-2">
      <path id="패스_156" data-name="패스 156" class="cls-1" d="M15.228,201.783H.643a.648.648,0,0,0,0,1.3H15.228a.648.648,0,0,0,0-1.3" transform="translate(0 -195.431)"/>
      <path id="패스_157" data-name="패스 157" class="cls-1" d="M276.444,6.542,270.138.19a.64.64,0,0,0-.91,0,.651.651,0,0,0,0,.917L275.079,7l-5.851,5.894a.651.651,0,0,0,0,.916.64.64,0,0,0,.91,0l6.306-6.352a.651.651,0,0,0,0-.917" transform="translate(-260.632 0)"/>
    </g>
  </g>
</svg>
