<svg id="그룹_865" data-name="그룹 865" xmlns="http://www.w3.org/2000/svg" xmlns:xlink="http://www.w3.org/1999/xlink" width="32" height="28.8" viewBox="0 0 32 28.8">
  <defs>
    <style>
      .cls-1 {
        fill: #aaa;
      }

      .cls-2 {
        clip-path: url(#clip-path);
      }
    </style>
    <clipPath id="clip-path">
      <rect id="사각형_413" data-name="사각형 413" class="cls-1" width="32" height="28.8"/>
    </clipPath>
  </defs>
  <g id="그룹_864" data-name="그룹 864" class="cls-2">
    <path id="패스_542" data-name="패스 542" class="cls-1" d="M134.971,164.1a7.2,7.2,0,1,1,7.333-7.2,7.275,7.275,0,0,1-7.333,7.2m0-12.436A5.237,5.237,0,1,0,140.3,156.9a5.291,5.291,0,0,0-5.333-5.236" transform="translate(-119.661 -140.51)"/>
    <path id="패스_543" data-name="패스 543" class="cls-1" d="M310.381,331.854a1,1,0,0,1-.707-.288l-4.288-4.21a.97.97,0,0,1,0-1.389,1.013,1.013,0,0,1,1.415,0l4.288,4.21a.97.97,0,0,1,0,1.389,1.007,1.007,0,0,1-.708.288" transform="translate(-286.025 -305.695)"/>
    <path id="패스_544" data-name="패스 544" class="cls-1" d="M28.333,28.8H3.667A3.637,3.637,0,0,1,0,25.2V3.6A3.637,3.637,0,0,1,3.667,0H28.333A3.637,3.637,0,0,1,32,3.6V25.2a3.637,3.637,0,0,1-3.667,3.6M3.667,1.964A1.654,1.654,0,0,0,2,3.6V25.2a1.654,1.654,0,0,0,1.667,1.636H28.333A1.654,1.654,0,0,0,30,25.2V3.6a1.654,1.654,0,0,0-1.667-1.636Z"/>
    <path id="패스_545" data-name="패스 545" class="cls-1" d="M31,76.63H1a.982.982,0,1,1,0-1.964H31a.982.982,0,1,1,0,1.964" transform="translate(0 -70.084)"/>
  </g>
</svg>
