<svg id="그룹_302" data-name="그룹 302" xmlns="http://www.w3.org/2000/svg" xmlns:xlink="http://www.w3.org/1999/xlink" width="16" height="16" viewBox="0 0 16 16">
  <defs>
    <style>
      .cls-1 {
        fill: #666;
      }

      .cls-2 {
        clip-path: url(#clip-path);
      }
    </style>
    <clipPath id="clip-path">
      <rect id="사각형_155" data-name="사각형 155" class="cls-1" width="16" height="16"/>
    </clipPath>
  </defs>
  <g id="그룹_301" data-name="그룹 301" class="cls-2">
    <path id="패스_43" data-name="패스 43" class="cls-1" d="M14.4,27.637h-1.13a.424.424,0,0,0-.424.424v5.152a.5.5,0,0,1-.5.5H2.473a.5.5,0,0,1-.5-.5V23.339a.5.5,0,0,1,.5-.5H7.889a.424.424,0,0,0,.424-.424v-1.13a.424.424,0,0,0-.424-.424H2.473A2.476,2.476,0,0,0,0,23.339v9.874a2.476,2.476,0,0,0,2.473,2.474h9.874a2.476,2.476,0,0,0,2.474-2.474V28.06a.424.424,0,0,0-.424-.424" transform="translate(0 -19.686)"/>
    <path id="패스_44" data-name="패스 44" class="cls-1" d="M127.367,0h-4.495a.424.424,0,0,0-.424.424v1.13a.424.424,0,0,0,.424.424h1.543l-5.805,5.805a.424.424,0,0,0,0,.6l.8.8a.424.424,0,0,0,.6,0l5.805-5.805V4.919a.424.424,0,0,0,.424.424h1.13a.424.424,0,0,0,.424-.424V.424A.424.424,0,0,0,127.367,0" transform="translate(-111.791)"/>
  </g>
</svg>
