<svg id="그룹_912" data-name="그룹 912" xmlns="http://www.w3.org/2000/svg" xmlns:xlink="http://www.w3.org/1999/xlink" width="32" height="31" viewBox="0 0 32 31">
  <defs>
    <style>
      .cls-1 {
        fill: #aaa;
      }

      .cls-2 {
        clip-path: url(#clip-path);
      }
    </style>
    <clipPath id="clip-path">
      <rect id="사각형_436" data-name="사각형 436" class="cls-1" width="32" height="31"/>
    </clipPath>
  </defs>
  <g id="그룹_911" data-name="그룹 911" class="cls-2">
    <path id="패스_638" data-name="패스 638" class="cls-1" d="M16.008,206.413a3.309,3.309,0,0,1-1.543-.381l-14.1-7.437a.679.679,0,0,1-.283-.91.664.664,0,0,1,.9-.286l14.1,7.436a1.98,1.98,0,0,0,1.851,0l14.1-7.436a.664.664,0,0,1,.9.286.678.678,0,0,1-.283.91l-14.1,7.436A3.31,3.31,0,0,1,16.008,206.413Z" transform="translate(-0.01 -184.856)"/>
    <path id="패스_639" data-name="패스 639" class="cls-1" d="M29.331,139.714H2.666A2.684,2.684,0,0,1,0,137.018V120.049a2.692,2.692,0,0,1,1.44-2.391l2.918-1.537a.664.664,0,0,1,.9.286.678.678,0,0,1-.283.908l-2.92,1.537a1.351,1.351,0,0,0-.721,1.2v16.969a1.343,1.343,0,0,0,1.333,1.348H29.331a1.343,1.343,0,0,0,1.333-1.348V120.049a1.342,1.342,0,0,0-.721-1.194l-2.92-1.538a.676.676,0,0,1-.283-.908.66.66,0,0,1,.9-.286l2.92,1.537A2.689,2.689,0,0,1,32,120.049v16.969a2.684,2.684,0,0,1-2.666,2.7" transform="translate(0 -108.714)"/>
    <path id="패스_640" data-name="패스 640" class="cls-1" d="M162,214.682H150a.674.674,0,0,1,0-1.348h12a.674.674,0,0,1,0,1.348" transform="translate(-140 -199.856)"/>
    <path id="패스_641" data-name="패스 641" class="cls-1" d="M162,150.682H150a.674.674,0,0,1,0-1.348h12a.674.674,0,0,1,0,1.348" transform="translate(-140 -139.899)"/>
    <path id="패스_642" data-name="패스 642" class="cls-1" d="M156.667,86.682H150a.674.674,0,0,1,0-1.348h6.666a.674.674,0,0,1,0,1.348" transform="translate(-140.001 -79.943)"/>
    <path id="패스_643" data-name="패스 643" class="cls-1" d="M87.331,15.931a.671.671,0,0,1-.667-.674V3.37a2.013,2.013,0,0,0-2-2.022H67.333a2.013,2.013,0,0,0-2,2.022V15.257a.667.667,0,1,1-1.333,0V3.37A3.356,3.356,0,0,1,67.333,0H84.665A3.356,3.356,0,0,1,88,3.37V15.257a.671.671,0,0,1-.667.674" transform="translate(-60 0)"/>
  </g>
</svg>
