<svg id="그룹_908" data-name="그룹 908" xmlns="http://www.w3.org/2000/svg" xmlns:xlink="http://www.w3.org/1999/xlink" width="32" height="27" viewBox="0 0 32 27">
  <defs>
    <style>
      .cls-1 {
        fill: #aaa;
      }

      .cls-2 {
        clip-path: url(#clip-path);
      }
    </style>
    <clipPath id="clip-path">
      <rect id="사각형_434" data-name="사각형 434" class="cls-1" width="32" height="27"/>
    </clipPath>
  </defs>
  <g id="그룹_907" data-name="그룹 907" class="cls-2">
    <path id="패스_626" data-name="패스 626" class="cls-1" d="M30,22.951H2a2.015,2.015,0,0,1-2-2.025V2.026A2.015,2.015,0,0,1,2,0H30a2.015,2.015,0,0,1,2,2.025v18.9a2.015,2.015,0,0,1-2,2.025M2,1.351a.672.672,0,0,0-.667.675v18.9A.672.672,0,0,0,2,21.6H30a.672.672,0,0,0,.667-.675V2.026A.672.672,0,0,0,30,1.351Z" transform="translate(0 -0.001)"/>
    <path id="패스_627" data-name="패스 627" class="cls-1" d="M180.657,346.713h-9.333a.667.667,0,0,1-.616-.417.68.68,0,0,1,.144-.736,5.522,5.522,0,0,0,1.777-3.569.674.674,0,0,1,.663-.676h0a.669.669,0,0,1,.667.663,6.345,6.345,0,0,1-1.212,3.384h6.476a6.445,6.445,0,0,1-1.237-3.375.667.667,0,1,1,1.333,0,5.652,5.652,0,0,0,1.805,3.576.679.679,0,0,1,.144.736A.663.663,0,0,1,180.657,346.713Zm-1.333-4.725h0Z" transform="translate(-159.991 -319.713)"/>
    <path id="패스_628" data-name="패스 628" class="cls-1" d="M31.333,278.684H.667a.675.675,0,0,1,0-1.35H31.333a.675.675,0,0,1,0,1.35" transform="translate(0 -259.784)"/>
    <path id="패스_629" data-name="패스 629" class="cls-1" d="M323,93.434h-2.333a.671.671,0,0,1-.667-.675v-6.75a.671.671,0,0,1,.667-.675H323a2.368,2.368,0,0,1,1.632,4.05A2.368,2.368,0,0,1,323,93.434m-1.667-1.35H323a1.013,1.013,0,0,0,0-2.025h-1.667Zm0-3.375H323a1.013,1.013,0,0,0,0-2.025h-1.667Z" transform="translate(-300 -79.934)"/>
    <path id="패스_630" data-name="패스 630" class="cls-1" d="M110,93.434h-2.667a.675.675,0,0,1,0-1.35H110a.672.672,0,0,0,.667-.675v-5.4a.667.667,0,1,1,1.333,0v5.4a2.015,2.015,0,0,1-2,2.025" transform="translate(-100 -79.934)"/>
    <path id="패스_631" data-name="패스 631" class="cls-1" d="M216.666,93.434h-1.333a2.015,2.015,0,0,1-2-2.025v-4.05a2.015,2.015,0,0,1,2-2.025h1.333a2.015,2.015,0,0,1,2,2.025v4.05a2.015,2.015,0,0,1-2,2.025m-1.333-6.75a.672.672,0,0,0-.667.675v4.05a.672.672,0,0,0,.667.675h1.333a.672.672,0,0,0,.667-.675v-4.05a.672.672,0,0,0-.667-.675Z" transform="translate(-200 -79.934)"/>
  </g>
</svg>
