<svg xmlns="http://www.w3.org/2000/svg" xmlns:xlink="http://www.w3.org/1999/xlink" width="14" height="24" viewBox="0 0 14 24">
  <defs>
    <style>
      .cls-1 {
        fill: #444;
      }

      .cls-2 {
        clip-path: url(#clip-path);
      }
    </style>
    <clipPath id="clip-path">
      <rect id="사각형_98" data-name="사각형 98" class="cls-1" width="24" height="14"/>
    </clipPath>
  </defs>
  <g id="그룹_243" data-name="그룹 243" transform="translate(14) rotate(90)">
    <g id="그룹_199" data-name="그룹 199" class="cls-2">
      <path id="패스_30" data-name="패스 30" class="cls-1" d="M12,14a1.656,1.656,0,0,1-1.188-.5L.492,2.936A1.748,1.748,0,0,1,.492.5,1.654,1.654,0,0,1,2.869.5L12,9.848,21.131.5a1.654,1.654,0,0,1,2.377,0,1.748,1.748,0,0,1,0,2.432L13.188,13.5A1.656,1.656,0,0,1,12,14" transform="translate(0 0)"/>
    </g>
  </g>
</svg>
