<svg xmlns="http://www.w3.org/2000/svg" xmlns:xlink="http://www.w3.org/1999/xlink" width="80" height="73" viewBox="0 0 80 73">
  <defs>
    <style>
      .cls-1 {
        fill: none;
      }

      .cls-2 {
        clip-path: url(#clip-path);
      }

      .cls-3 {
        fill: #3f6e90;
      }

      .cls-4 {
        fill: #355f7f;
      }

      .cls-5 {
        fill: #d8ecfe;
      }

      .cls-6 {
        fill: #305972;
      }

      .cls-7 {
        fill: #fff;
      }

      .cls-8 {
        fill: #f9f7f8;
      }

      .cls-9 {
        fill: #aee49e;
      }

      .cls-10 {
        fill: #8bd8a5;
      }

      .cls-11 {
        fill: #ffcebf;
      }

      .cls-12 {
        fill: #ffb09e;
      }

      .cls-13 {
        fill: #b3dafe;
      }

      .cls-14 {
        fill: #8ac9fe;
      }
    </style>
    <clipPath id="clip-path">
      <rect id="사각형_518" data-name="사각형 518" class="cls-1" width="80" height="73" transform="translate(0.001 0)"/>
    </clipPath>
  </defs>
  <g id="그룹_1053" data-name="그룹 1053" transform="translate(0.327 -0.001)">
    <g id="그룹_1052" data-name="그룹 1052" class="cls-2" transform="translate(-0.328 0)">
      <path id="패스_713" data-name="패스 713" class="cls-3" d="M30,107.274V55.188A4.686,4.686,0,0,1,34.686,50.5H95.915a4.686,4.686,0,0,1,4.686,4.686v52.086Z" transform="translate(-25.05 -42.614)"/>
      <path id="패스_714" data-name="패스 714" class="cls-4" d="M426.686,50.5H422a4.686,4.686,0,0,1,4.686,4.686v52.086h4.686V55.188a4.686,4.686,0,0,0-4.686-4.686" transform="translate(-355.822 -42.614)"/>
      <path id="패스_715" data-name="패스 715" class="cls-5" d="M60,134.931V81.6A1.093,1.093,0,0,1,61.093,80.5h59.042a1.093,1.093,0,0,1,1.093,1.093v53.335Z" transform="translate(-50.365 -67.928)"/>
      <path id="패스_716" data-name="패스 716" class="cls-4" d="M53.186,388.064v2.121a1.562,1.562,0,0,1-1.562,1.562H41.005a1.562,1.562,0,0,1-1.562-1.562v-2.121a1.562,1.562,0,0,0-1.562-1.562H9.062A1.562,1.562,0,0,0,7.5,388.064v5.467a4.686,4.686,0,0,0,4.686,4.686H80.443a4.686,4.686,0,0,0,4.686-4.686v-5.467a1.562,1.562,0,0,0-1.562-1.562H54.748A1.562,1.562,0,0,0,53.186,388.064Z" transform="translate(-6.065 -326.132)"/>
      <path id="패스_717" data-name="패스 717" class="cls-6" d="M452.31,386.5h-4.686a1.562,1.562,0,0,1,1.562,1.562v5.467a4.686,4.686,0,0,1-4.686,4.686h4.686a4.686,4.686,0,0,0,4.686-4.686v-5.467a1.562,1.562,0,0,0-1.562-1.562" transform="translate(-374.807 -326.132)"/>
      <path id="패스_718" data-name="패스 718" class="cls-7" d="M194.408,124.811a13.96,13.96,0,0,1-4.872,10.611c-2.449,2.107-5.635.4-9.119.4s-6.67,1.7-9.119-.4a13.991,13.991,0,1,1,23.11-10.611" transform="translate(-140.167 -93.511)"/>
      <path id="패스_719" data-name="패스 719" class="cls-8" d="M243.343,110.82a14.089,14.089,0,0,0-2.343.2,13.993,13.993,0,0,1,0,27.589,14.646,14.646,0,0,0,2.343-.163,13.658,13.658,0,0,0,9.119-3.021,13.991,13.991,0,0,0-9.119-24.6" transform="translate(-203.093 -93.511)"/>
      <path id="패스_720" data-name="패스 720" class="cls-9" d="M206.738,215.147a9.16,9.16,0,0,0-9.119,8.306,13.99,13.99,0,0,0,18.238,0,9.16,9.16,0,0,0-9.119-8.306" transform="translate(-166.488 -181.542)"/>
      <path id="패스_721" data-name="패스 721" class="cls-10" d="M251.078,242.06a14.006,14.006,0,0,1-10.037,7.285,14.034,14.034,0,0,0,11.455-3.182h0a9.107,9.107,0,0,0-1.418-4.1" transform="translate(-203.128 -204.252)"/>
      <path id="패스_722" data-name="패스 722" class="cls-11" d="M229.9,165.328a4.832,4.832,0,0,1-4.832-4.832v-1.843a4.832,4.832,0,1,1,9.664,0V160.5a4.832,4.832,0,0,1-4.832,4.832" transform="translate(-189.645 -129.795)"/>
      <path id="패스_723" data-name="패스 723" class="cls-12" d="M243.343,153.822a4.809,4.809,0,0,0-2.343.606,4.83,4.83,0,0,1,2.489,4.226V160.5A4.83,4.83,0,0,1,241,164.723a4.832,4.832,0,0,0,7.175-4.226v-1.843a4.832,4.832,0,0,0-4.832-4.832" transform="translate(-203.093 -129.796)"/>
      <path id="패스_724" data-name="패스 724" class="cls-13" d="M187.651,326.969H160.433a1.562,1.562,0,0,1-1.562-1.562v-2.343a1.562,1.562,0,0,1,1.562-1.562h27.219a1.562,1.562,0,0,1,1.562,1.562v2.343a1.562,1.562,0,0,1-1.562,1.562" transform="translate(-133.792 -271.285)"/>
      <path id="패스_725" data-name="패스 725" class="cls-14" d="M317.815,321.5h-4.686a1.562,1.562,0,0,1,1.562,1.562v2.343a1.562,1.562,0,0,1-1.562,1.562h4.686a1.562,1.562,0,0,0,1.562-1.562v-2.343a1.562,1.562,0,0,0-1.562-1.562" transform="translate(-263.956 -271.285)"/>
      <path id="패스_726" data-name="패스 726" class="cls-13" d="M337.171,22.989c0,1.327-1.486,2.441-1.813,3.665-.338,1.266.382,2.972-.26,4.081-.651,1.125-2.494,1.35-3.407,2.262s-1.138,2.756-2.263,3.407c-1.109.641-2.814-.079-4.08.26-1.224.327-2.338,1.813-3.664,1.813s-2.441-1.486-3.665-1.813c-1.266-.338-2.972.382-4.081-.26-1.125-.651-1.35-2.494-2.262-3.407s-2.756-1.138-3.407-2.262c-.641-1.109.079-2.814-.26-4.08-.327-1.224-1.813-2.338-1.813-3.665s1.486-2.441,1.813-3.665c.338-1.266-.382-2.972.26-4.081.651-1.125,2.494-1.35,3.407-2.262s1.138-2.756,2.262-3.407c1.109-.641,2.814.079,4.08-.26,1.224-.327,2.338-1.813,3.665-1.813s2.441,1.486,3.664,1.813c1.266.338,2.972-.382,4.081.26,1.125.651,1.35,2.494,2.262,3.407s2.756,1.138,3.407,2.262c.641,1.109-.079,2.814.26,4.08.327,1.224,1.813,2.338,1.813,3.665" transform="translate(-258.107 -6.331)"/>
      <path id="패스_727" data-name="패스 727" class="cls-14" d="M406.366,26.653c.327-1.224,1.813-2.338,1.813-3.665s-1.486-2.441-1.813-3.665c-.338-1.266.382-2.972-.26-4.081-.651-1.124-2.494-1.35-3.407-2.262s-1.138-2.756-2.263-3.407c-1.109-.641-2.814.079-4.081-.26-1.224-.327-2.337-1.813-3.664-1.813a4.509,4.509,0,0,0-2.343,1.113,4.484,4.484,0,0,0,1.322.7c1.266.338,2.972-.382,4.081.26,1.124.651,1.35,2.494,2.262,3.407s2.756,1.138,3.407,2.262c.641,1.109-.079,2.814.26,4.081.327,1.224,1.813,2.338,1.813,3.665s-1.486,2.441-1.813,3.665c-.338,1.266.382,2.972-.26,4.081-.651,1.124-2.494,1.35-3.407,2.262s-1.138,2.756-2.262,3.407c-1.109.641-2.814-.079-4.081.26a4.484,4.484,0,0,0-1.322.7,4.508,4.508,0,0,0,2.343,1.113c1.327,0,2.441-1.486,3.665-1.813,1.266-.338,2.972.382,4.081-.26,1.124-.651,1.35-2.494,2.262-3.407s2.756-1.138,3.407-2.262c.641-1.109-.079-2.815.26-4.081" transform="translate(-329.114 -6.331)"/>
      <path id="패스_728" data-name="패스 728" d="M58.768,22.016a1.972,1.972,0,0,0,2.789,0l9.624-9.624a1.172,1.172,0,0,0-1.657-1.657L60.162,20.1,57.1,17.039A1.172,1.172,0,1,0,55.447,18.7ZM77.239,59.2h-.781V26.234a3.55,3.55,0,0,0,1.284-1.244,4.835,4.835,0,0,0,.374-2.938,4.816,4.816,0,0,1,0-1.426,4.64,4.64,0,0,1,.683-1.174,4.9,4.9,0,0,0,1.17-2.793,4.9,4.9,0,0,0-1.17-2.793,4.631,4.631,0,0,1-.683-1.174,4.805,4.805,0,0,1,0-1.427,4.833,4.833,0,0,0-.374-2.938,4.863,4.863,0,0,0-2.381-1.806,4.725,4.725,0,0,1-1.211-.7,4.723,4.723,0,0,1-.7-1.211A4.863,4.863,0,0,0,71.645,2.23a4.836,4.836,0,0,0-2.938-.374,4.81,4.81,0,0,1-1.426,0,4.64,4.64,0,0,1-1.174-.683A4.9,4.9,0,0,0,63.313,0a4.9,4.9,0,0,0-2.793,1.17,4.631,4.631,0,0,1-1.174.683,4.8,4.8,0,0,1-1.427,0,4.832,4.832,0,0,0-2.938.374,4.864,4.864,0,0,0-1.806,2.381,4.728,4.728,0,0,1-.7,1.211,7.147,7.147,0,0,1-1.625.894H9.372a5.864,5.864,0,0,0-5.857,5.857V59.2H2.733A2.737,2.737,0,0,0,0,61.932V67.4a5.864,5.864,0,0,0,5.857,5.857H74.115A5.864,5.864,0,0,0,79.972,67.4V61.932A2.737,2.737,0,0,0,77.239,59.2m-27.5-43.986A6.156,6.156,0,0,0,50.772,13.3a6.653,6.653,0,0,0,.075-2.232A3.345,3.345,0,0,1,50.914,9.5a3.315,3.315,0,0,1,1.342-.855A6.369,6.369,0,0,0,54.135,7.48,6.368,6.368,0,0,0,55.3,5.6a3.35,3.35,0,0,1,.855-1.342,3.348,3.348,0,0,1,1.565-.068,6.481,6.481,0,0,0,2.232-.075,6.158,6.158,0,0,0,1.915-1.029,3.342,3.342,0,0,1,1.447-.745,3.342,3.342,0,0,1,1.447.745,6.157,6.157,0,0,0,1.916,1.029,6.481,6.481,0,0,0,2.232.074,3.342,3.342,0,0,1,1.565.068A3.35,3.35,0,0,1,71.328,5.6,6.369,6.369,0,0,0,72.493,7.48a6.37,6.37,0,0,0,1.879,1.165,3.351,3.351,0,0,1,1.342.856,3.35,3.35,0,0,1,.068,1.565,6.474,6.474,0,0,0,.075,2.232,6.158,6.158,0,0,0,1.029,1.915,3.342,3.342,0,0,1,.745,1.447,3.342,3.342,0,0,1-.745,1.447,6.157,6.157,0,0,0-1.029,1.916,6.484,6.484,0,0,0-.074,2.232,3.346,3.346,0,0,1-.068,1.565,3.351,3.351,0,0,1-1.342.856,6.37,6.37,0,0,0-1.879,1.165,6.37,6.37,0,0,0-1.165,1.879c-.644,1.384-.895,1.541-2.42,1.41a6.474,6.474,0,0,0-2.232.074,6.163,6.163,0,0,0-1.916,1.029,3.341,3.341,0,0,1-1.446.745,3.341,3.341,0,0,1-1.446-.745A6.156,6.156,0,0,0,59.952,29.2a4.452,4.452,0,0,0-1.153-.135c-.372,0-.737.031-1.079.061a3.345,3.345,0,0,1-1.564-.068,3.351,3.351,0,0,1-.856-1.342,5.821,5.821,0,0,0-3.044-3.044,3.35,3.35,0,0,1-1.342-.855,3.346,3.346,0,0,1-.068-1.564c.026-.307.053-.633.058-.965,0-.016,0-.031,0-.047a4.539,4.539,0,0,0-.133-1.219,6.163,6.163,0,0,0-1.029-1.916A3.341,3.341,0,0,1,49,16.659,3.339,3.339,0,0,1,49.743,15.213ZM74.115,27.534V59.2H71.772V31.008a5.072,5.072,0,0,0,1.68-2.3,5.119,5.119,0,0,1,.663-1.172M51.267,26.8a8.923,8.923,0,0,1,.882.45,12.8,12.8,0,0,1-2.352,12.3A10.448,10.448,0,0,0,45.124,33.8a5.967,5.967,0,0,0,.866-3.1V28.858a6,6,0,0,0-12.007,0V30.7a5.967,5.967,0,0,0,.866,3.1,10.448,10.448,0,0,0-4.672,5.737,12.814,12.814,0,0,1,18.36-17.79,5.311,5.311,0,0,0,.349,3.239A4.866,4.866,0,0,0,51.267,26.8ZM36.494,35.581a5.984,5.984,0,0,0,6.984,0,8.054,8.054,0,0,1,4.379,5.828,12.776,12.776,0,0,1-15.741,0A8.054,8.054,0,0,1,36.494,35.581ZM36.325,30.7V28.858a3.661,3.661,0,0,1,7.322,0V30.7a3.661,3.661,0,1,1-7.322,0M5.857,12.574A3.518,3.518,0,0,1,9.372,9.06H48.584a6.777,6.777,0,0,0-.061,2.343H40.767a1.171,1.171,0,0,0,0,2.343H47.91a5.129,5.129,0,0,0-1.255,2.913,3.232,3.232,0,0,0,.208,1.123,15.167,15.167,0,1,0,8.282,13.392,5.1,5.1,0,0,0,2.775.287,4.806,4.806,0,0,1,1.427,0,4.637,4.637,0,0,1,1.174.683,4.9,4.9,0,0,0,2.793,1.17,4.9,4.9,0,0,0,2.793-1.17,4.638,4.638,0,0,1,1.174-.683,9.434,9.434,0,0,1,2.148.049V59.2H48.419a2.737,2.737,0,0,0-2.733,2.733v2.121a.391.391,0,0,1-.39.39H34.677a.391.391,0,0,1-.39-.39V61.932A2.737,2.737,0,0,0,31.553,59.2H10.543V13.746H35.3a1.171,1.171,0,0,0,0-2.343H10.465A2.267,2.267,0,0,0,8.2,13.667V59.2H5.857ZM77.629,67.4a3.518,3.518,0,0,1-3.514,3.514H5.857A3.518,3.518,0,0,1,2.343,67.4V61.932a.391.391,0,0,1,.39-.39H31.553a.391.391,0,0,1,.39.39v2.121a2.737,2.737,0,0,0,2.733,2.733H45.3a2.737,2.737,0,0,0,2.733-2.733V61.932a.391.391,0,0,1,.39-.39H77.239a.391.391,0,0,1,.39.39ZM23.643,51.779v2.343a2.737,2.737,0,0,0,2.733,2.733h6.614a1.171,1.171,0,0,0,0-2.343H26.377a.391.391,0,0,1-.39-.39V51.779a.391.391,0,0,1,.39-.39H53.6a.391.391,0,0,1,.39.39v2.343a.391.391,0,0,1-.39.39H38.458a1.171,1.171,0,1,0,0,2.343H53.6a2.737,2.737,0,0,0,2.733-2.733V51.779A2.737,2.737,0,0,0,53.6,49.046H26.377A2.737,2.737,0,0,0,23.643,51.779Z" transform="translate(0.264 0)"/>
    </g>
  </g>
</svg>
