<svg id="그룹_896" data-name="그룹 896" xmlns="http://www.w3.org/2000/svg" xmlns:xlink="http://www.w3.org/1999/xlink" width="40" height="40" viewBox="0 0 40 40">
  <defs>
    <style>
      .cls-1 {
        fill: none;
      }

      .cls-2 {
        clip-path: url(#clip-path);
      }

      .cls-3 {
        fill: #16202d;
      }

      .cls-4 {
        fill: #2d3e53;
      }

      .cls-5 {
        fill: #ffd19c;
      }

      .cls-6 {
        fill: #fff0be;
      }

      .cls-7 {
        fill: #ff3187;
      }

      .cls-8 {
        fill: #ff5178;
      }

      .cls-9 {
        fill: #dff5ff;
      }

      .cls-10 {
        fill: #fff;
      }

      .cls-11 {
        fill: #ffb24a;
      }

      .cls-12 {
        fill: #ffd23b;
      }
    </style>
    <clipPath id="clip-path">
      <rect id="사각형_428" data-name="사각형 428" class="cls-1" width="40" height="40"/>
    </clipPath>
  </defs>
  <g id="그룹_895" data-name="그룹 895" class="cls-2">
    <path id="패스_578" data-name="패스 578" class="cls-3" d="M11.891,451.219a1.172,1.172,0,0,0,1.275.255l2.8-1.152.069-3.246Z" transform="translate(-10.962 -412.148)"/>
    <path id="패스_579" data-name="패스 579" class="cls-4" d="M8.741,447.96l-1.153,2.8a1.172,1.172,0,0,0,.255,1.275l5.179-3.107Z" transform="translate(-6.914 -412.963)"/>
    <path id="패스_580" data-name="패스 580" class="cls-5" d="M58.5,393.311l.069-5.455-6.905,6.905.967.967Z" transform="translate(-47.629 -357.555)"/>
    <path id="패스_581" data-name="패스 581" class="cls-6" d="M25.8,372.83l-2.417,5.87,2.21,2.21,7.251-4.35Z" transform="translate(-21.554 -343.703)"/>
    <path id="패스_582" data-name="패스 582" class="cls-7" d="M350.673,39.157,349.016,37.5,338.382,48.963l8.977-3.176,3.315-3.315a2.344,2.344,0,0,0,0-3.315" transform="translate(-311.946 -34.57)"/>
    <path id="패스_583" data-name="패스 583" class="cls-8" d="M363.684,9.844l-1.657-1.657a2.344,2.344,0,0,0-3.315,0L355.4,11.5l-1.1,11.049,9.391-9.391a2.344,2.344,0,0,0,0-3.315" transform="translate(-326.614 -6.914)"/>
    <path id="패스_584" data-name="패스 584" class="cls-9" d="M304.794,124.01l9.115,2.486,2.486-2.486-1.657-1.657Z" transform="translate(-280.982 -112.794)"/>
    <path id="패스_585" data-name="패스 585" class="cls-10" d="M344.072,63.685,339.1,58.713,336.614,61.2l1.657,8.286Z" transform="translate(-310.316 -54.126)"/>
    <path id="패스_586" data-name="패스 586" class="cls-11" d="M117.956,176.228l1.657,1.657,22.054-22.054-1.657-1.657-15.063,6.991Z" transform="translate(-108.741 -142.128)"/>
    <rect id="사각형_427" data-name="사각형 427" class="cls-12" width="31.185" height="7.03" transform="translate(4.241 29.126) rotate(-45)"/>
    <path id="패스_587" data-name="패스 587" d="M39.143,8.315a2.933,2.933,0,0,0,0-4.143L35.829.857a2.933,2.933,0,0,0-4.143,0L3.83,28.712A.586.586,0,0,0,3.7,28.9L.133,37.572a1.758,1.758,0,0,0,2.295,2.295L11.1,36.3a.587.587,0,0,0,.191-.127ZM32.514,1.686a1.76,1.76,0,0,1,2.486,0L38.315,5a1.76,1.76,0,0,1,0,2.486l-2.9,2.9-5.8-5.8ZM28.785,5.414l5.8,5.8-1.657,1.657-5.8-5.8ZM1.982,38.783a.586.586,0,0,1-.765-.765l.818-1.986,1.934,1.934Zm3.16-1.3L2.518,34.858l1.934-4.7,5.386,5.386Zm3.246-5.041,9.784-9.784a.586.586,0,1,0-.829-.829L7.559,31.613,5.073,29.127,26.3,7.9l2.486,2.486L19,20.17A.586.586,0,1,0,19.83,21l9.784-9.784L32.1,13.7,10.874,34.927Z" transform="translate(0 0)"/>
  </g>
</svg>
