<svg id="그룹_881" data-name="그룹 881" xmlns="http://www.w3.org/2000/svg" xmlns:xlink="http://www.w3.org/1999/xlink" width="28" height="40" viewBox="0 0 28 40">
  <defs>
    <style>
      .cls-1 {
        fill: none;
      }

      .cls-2 {
        clip-path: url(#clip-path);
      }

      .cls-3 {
        fill: #c7cfe2;
      }

      .cls-4, .cls-7 {
        opacity: 0.1;
      }

      .cls-5 {
        clip-path: url(#clip-path-3);
      }

      .cls-6 {
        fill: #ffd782;
      }

      .cls-7 {
        isolation: isolate;
      }

      .cls-8 {
        clip-path: url(#clip-path-4);
      }
    </style>
    <clipPath id="clip-path">
      <rect id="사각형_420" data-name="사각형 420" class="cls-1" width="28" height="40"/>
    </clipPath>
    <clipPath id="clip-path-3">
      <rect id="사각형_417" data-name="사각형 417" class="cls-1" width="21.339" height="8.328"/>
    </clipPath>
    <clipPath id="clip-path-4">
      <rect id="사각형_418" data-name="사각형 418" class="cls-1" width="5.827" height="10.936"/>
    </clipPath>
  </defs>
  <g id="그룹_880" data-name="그룹 880" class="cls-2">
    <g id="그룹_879" data-name="그룹 879">
      <g id="그룹_878" data-name="그룹 878" class="cls-2">
        <path id="패스_559" data-name="패스 559" class="cls-3" d="M62.179,29.711a2.559,2.559,0,0,1-2.536-2.58V19.113a5.6,5.6,0,1,0-11.2,0v8.017a2.536,2.536,0,1,1-5.072,0V19.113a10.671,10.671,0,1,1,21.339,0v8.017a2.559,2.559,0,0,1-2.536,2.581" transform="translate(-40.046 -7.612)"/>
        <g id="그룹_874" data-name="그룹 874" class="cls-4" transform="translate(3.33 13.771)">
          <g id="그룹_873" data-name="그룹 873">
            <g id="그룹_872" data-name="그룹 872" class="cls-5">
              <path id="패스_560" data-name="패스 560" d="M45.911,184.6a2.559,2.559,0,0,0,2.536-2.58v-5.748H43.375v5.748a2.559,2.559,0,0,0,2.536,2.58" transform="translate(-43.375 -176.272)"/>
              <path id="패스_561" data-name="패스 561" d="M255.239,176.271v5.748a2.536,2.536,0,1,0,5.072,0v-5.748Z" transform="translate(-238.972 -176.271)"/>
            </g>
          </g>
        </g>
        <path id="패스_562" data-name="패스 562" class="cls-6" d="M32.624,209.3h-22a2.386,2.386,0,0,0-2.365,2.406V229.9a2.386,2.386,0,0,0,2.365,2.406h22a2.386,2.386,0,0,0,2.365-2.406V211.707a2.386,2.386,0,0,0-2.365-2.406" transform="translate(-7.623 -192.949)"/>
        <g id="그룹_877" data-name="그룹 877" class="cls-7" transform="translate(11.086 23.168)">
          <g id="그룹_876" data-name="그룹 876">
            <g id="그룹_875" data-name="그룹 875" class="cls-8">
              <path id="패스_563" data-name="패스 563" d="M150.215,299.519a2.914,2.914,0,1,0-5.827,0,2.977,2.977,0,0,0,1.115,2.332v5.64h3.6v-5.64a2.977,2.977,0,0,0,1.115-2.332" transform="translate(-144.388 -296.554)"/>
            </g>
          </g>
        </g>
        <path id="패스_564" data-name="패스 564" d="M137.878,300.523h3.6a.64.64,0,0,0,.634-.645v-5.345a3.548,3.548,0,1,0-4.865,0v5.345a.64.64,0,0,0,.634.645m1.8-10.936a2.327,2.327,0,0,1,1.407,4.144.649.649,0,0,0-.242.507v4.995h-2.329v-4.995a.65.65,0,0,0-.242-.507,2.327,2.327,0,0,1,1.407-4.144" transform="translate(-125.677 -265.774)"/>
        <path id="패스_565" data-name="패스 565" d="M25.3,15.722V11.5A11.417,11.417,0,0,0,14,0,11.417,11.417,0,0,0,2.7,11.5v4.221A3.036,3.036,0,0,0,0,18.758v1.619a.64.64,0,0,0,.634.645.64.64,0,0,0,.634-.645V18.758A1.748,1.748,0,0,1,3,17H25a1.748,1.748,0,0,1,1.731,1.761v13.2a.634.634,0,1,0,1.268,0v-13.2a3.036,3.036,0,0,0-2.7-3.036m-6.34-.015H9.036V11.5a4.964,4.964,0,1,1,9.927,0Zm1.268,0V11.5a6.232,6.232,0,1,0-12.463,0v4.2h-3.8V11.5A10.136,10.136,0,0,1,14,1.29,10.136,10.136,0,0,1,24.036,11.5v4.2Z"/>
        <path id="패스_566" data-name="패스 566" d="M27.367,297.179a.64.64,0,0,0-.634.645v2.408A1.748,1.748,0,0,1,25,301.993H3a1.748,1.748,0,0,1-1.731-1.761V286.24a.64.64,0,0,0-.634-.645A.64.64,0,0,0,0,286.24v13.991a3.029,3.029,0,0,0,3,3.051H25a3.029,3.029,0,0,0,3-3.051v-2.408a.64.64,0,0,0-.634-.645" transform="translate(-0.001 -263.283)"/>
      </g>
    </g>
  </g>
</svg>
