<svg xmlns="http://www.w3.org/2000/svg" xmlns:xlink="http://www.w3.org/1999/xlink" width="40" height="40" viewBox="0 0 40 40">
  <defs>
    <style>
      .cls-1 {
        fill: none;
      }

      .cls-2 {
        clip-path: url(#clip-path);
      }

      .cls-3 {
        fill: #cbc4cc;
      }

      .cls-4 {
        fill: #97da7b;
      }

      .cls-5 {
        fill: #b5adb6;
      }
    </style>
    <clipPath id="clip-path">
      <rect id="사각형_520" data-name="사각형 520" class="cls-1" width="40" height="40"/>
    </clipPath>
  </defs>
  <g id="그룹_1057" data-name="그룹 1057" transform="translate(0 -0.001)">
    <g id="그룹_1056" data-name="그룹 1056" class="cls-2" transform="translate(0 0.001)">
      <path id="패스_738" data-name="패스 738" class="cls-3" d="M44.463,23.194H43.269a.56.56,0,0,1-.544-.428,16.321,16.321,0,0,0-2.061-4.834.56.56,0,0,1,.077-.7l.887-.887a1.606,1.606,0,0,0,0-2.27l-2.414-2.413a1.6,1.6,0,0,0-2.269,0l-.933.932a.559.559,0,0,1-.688.081,16.3,16.3,0,0,0-4.792-1.963.56.56,0,0,1-.433-.545V8.832a1.6,1.6,0,0,0-1.6-1.6H25.082a1.6,1.6,0,0,0-1.6,1.6v1.34a.56.56,0,0,1-.433.545,16.3,16.3,0,0,0-4.792,1.963.559.559,0,0,1-.688-.081l-.933-.932a1.6,1.6,0,0,0-2.269,0L11.949,14.08a1.606,1.606,0,0,0,0,2.27l.887.887a.559.559,0,0,1,.077.7,16.315,16.315,0,0,0-2.061,4.834.56.56,0,0,1-.544.428H9.114a1.605,1.605,0,0,0-1.6,1.606v3.412a1.605,1.605,0,0,0,1.6,1.606h1.1a.56.56,0,0,1,.547.441,16.325,16.325,0,0,0,2,4.977.56.56,0,0,1-.082.688l-.738.738a1.606,1.606,0,0,0,0,2.27l2.414,2.413a1.6,1.6,0,0,0,2.269,0l.693-.692a.562.562,0,0,1,.7-.076,16.32,16.32,0,0,0,5.019,2.106.561.561,0,0,1,.435.546v.952a1.6,1.6,0,0,0,1.6,1.6H28.5a1.6,1.6,0,0,0,1.6-1.6v-.952a.56.56,0,0,1,.435-.546,16.319,16.319,0,0,0,5.019-2.106.562.562,0,0,1,.7.076l.693.692a1.6,1.6,0,0,0,2.269,0l2.414-2.413a1.606,1.606,0,0,0,0-2.27l-.738-.738a.56.56,0,0,1-.082-.688,16.327,16.327,0,0,0,2-4.977.56.56,0,0,1,.547-.441h1.1a1.605,1.605,0,0,0,1.6-1.606V24.8A1.605,1.605,0,0,0,44.463,23.194ZM26.883,39.936A13.081,13.081,0,1,1,39.964,26.855,13.081,13.081,0,0,1,26.883,39.936Z" transform="translate(-6.922 -6.663)"/>
      <path id="패스_739" data-name="패스 739" class="cls-4" d="M169.624,47.61l16.691-21.167a.711.711,0,0,0-.118-1L184.616,24.2a.711.711,0,0,0-1,.118L167.781,44.4l-2.77-3.55a.681.681,0,0,0-.956-.118l-1.634,1.275a.681.681,0,0,0-.118.956l3.624,4.645a.678.678,0,0,0,.534.261h2.632A.677.677,0,0,0,169.624,47.61Z" transform="translate(-149.49 -22.168)"/>
      <path id="패스_740" data-name="패스 740" class="cls-5" d="M12.566,73.7a20.027,20.027,0,0,1,5.982-14.351q-.149.086-.3.176a.559.559,0,0,1-.688-.081l-.933-.932a1.6,1.6,0,0,0-2.269,0l-2.414,2.413a1.606,1.606,0,0,0,0,2.27l.887.887a.559.559,0,0,1,.077.7,16.313,16.313,0,0,0-2.061,4.834.56.56,0,0,1-.544.428H9.114a1.605,1.605,0,0,0-1.6,1.606v3.412a1.605,1.605,0,0,0,1.6,1.606h1.1a.56.56,0,0,1,.547.441,16.329,16.329,0,0,0,2,4.978.56.56,0,0,1-.082.688l-.738.738a1.606,1.606,0,0,0,0,2.27l2.414,2.413a1.6,1.6,0,0,0,2.269,0l.693-.692a.559.559,0,0,1,.548-.143A20.043,20.043,0,0,1,12.566,73.7" transform="translate(-6.922 -53.507)"/>
      <path id="패스_741" data-name="패스 741" d="M37.8,63.255H36.613a17,17,0,0,0-2.034-4.847.586.586,0,0,0-1,.614,15.83,15.83,0,0,1,1.9,4.527,1.149,1.149,0,0,0,1.117.877h1.2a1.032,1.032,0,0,1,1.031,1.031v3.437A1.032,1.032,0,0,1,37.8,69.924H36.687a1.144,1.144,0,0,0-1.123.9,15.812,15.812,0,0,1-1.947,4.834,1.146,1.146,0,0,0,.168,1.411l.744.744a1.032,1.032,0,0,1,0,1.458L32.1,81.7a1.032,1.032,0,0,1-1.458,0l-.7-.7a1.145,1.145,0,0,0-1.43-.157,15.817,15.817,0,0,1-4.875,2.045,1.146,1.146,0,0,0-.89,1.12v.959A1.032,1.032,0,0,1,21.718,86H18.282a1.032,1.032,0,0,1-1.031-1.031v-.959a1.146,1.146,0,0,0-.89-1.12,15.815,15.815,0,0,1-4.875-2.045,1.145,1.145,0,0,0-1.43.157l-.7.7a1.032,1.032,0,0,1-1.458,0l-2.43-2.43a1.032,1.032,0,0,1,0-1.458l.744-.744a1.146,1.146,0,0,0,.168-1.411,15.818,15.818,0,0,1-1.947-4.834,1.144,1.144,0,0,0-1.123-.9H2.2a1.032,1.032,0,0,1-1.031-1.031V65.457A1.032,1.032,0,0,1,2.2,64.426H3.4a1.148,1.148,0,0,0,1.117-.877,15.83,15.83,0,0,1,2-4.695,1.143,1.143,0,0,0-.158-1.428l-.893-.893a1.031,1.031,0,0,1,0-1.458l2.43-2.43a1.032,1.032,0,0,1,1.458,0l.939.939a1.147,1.147,0,0,0,1.411.168c.36-.22.735-.428,1.115-.62a.586.586,0,0,0-.528-1.045c-.4.2-.8.425-1.183.657l-.926-.926a2.2,2.2,0,0,0-3.114,0l-2.43,2.43a2.2,2.2,0,0,0,0,3.114l.881.88a16.993,16.993,0,0,0-2.136,5.013H2.2a2.2,2.2,0,0,0-2.2,2.2v3.437a2.2,2.2,0,0,0,2.2,2.2H3.3a16.984,16.984,0,0,0,2.079,5.162l-.731.731a2.2,2.2,0,0,0,0,3.114l2.43,2.43a2.2,2.2,0,0,0,3.114,0l.685-.685a16.982,16.982,0,0,0,5.208,2.184v.942a2.2,2.2,0,0,0,2.2,2.2h3.437a2.2,2.2,0,0,0,2.2-2.2v-.942a16.986,16.986,0,0,0,5.208-2.184l.685.685a2.2,2.2,0,0,0,3.114,0l2.43-2.43a2.2,2.2,0,0,0,0-3.114l-.731-.731A16.976,16.976,0,0,0,36.7,71.1H37.8a2.2,2.2,0,0,0,2.2-2.2V65.457A2.2,2.2,0,0,0,37.8,63.255Z" transform="translate(0 -47.176)"/>
      <path id="패스_742" data-name="패스 742" d="M183.586,5.038c.435-.142.877-.266,1.313-.367a1.144,1.144,0,0,0,.888-1.119V2.2a1.032,1.032,0,0,1,1.031-1.031h3.437A1.032,1.032,0,0,1,191.285,2.2v1.35a1.144,1.144,0,0,0,.888,1.119,15.829,15.829,0,0,1,4.293,1.694.586.586,0,1,0,.584-1.015,17,17,0,0,0-4.593-1.815V2.2a2.2,2.2,0,0,0-2.2-2.2h-3.437a2.2,2.2,0,0,0-2.2,2.2V3.534c-.463.109-.931.24-1.393.391a.586.586,0,1,0,.363,1.113Z" transform="translate(-168.536 -0.001)"/>
      <path id="패스_743" data-name="패스 743" d="M382.349,192.555a.586.586,0,0,0,.82-.119,13.583,13.583,0,0,0,1.364-13.95.586.586,0,0,0-1.057.505,12.412,12.412,0,0,1-1.246,12.745.586.586,0,0,0,.119.82" transform="translate(-352.261 -164.235)"/>
      <path id="패스_744" data-name="패스 744" d="M96.159,84.716a12.425,12.425,0,0,1,5.764,1.42.586.586,0,0,0,.545-1.036,13.571,13.571,0,1,0,2.824,22.052.586.586,0,0,0-.789-.866,12.4,12.4,0,1,1-8.345-21.569Z" transform="translate(-76.137 -77.019)"/>
      <path id="패스_745" data-name="패스 745" d="M167.332,29.3a.586.586,0,0,0,.822-.1l9.019-11.437a.125.125,0,0,1,.176-.021l1.581,1.247a.125.125,0,0,1,.021.176l-16.719,21.2h-2.721l-3.652-4.68a.1.1,0,0,1,.017-.134l1.634-1.275a.1.1,0,0,1,.134.017l2.77,3.55a.586.586,0,0,0,.46.225h0a.586.586,0,0,0,.46-.223l5.271-6.685a.586.586,0,1,0-.92-.725l-4.809,6.1-2.311-2.962a1.267,1.267,0,0,0-1.778-.219l-1.634,1.275a1.268,1.268,0,0,0-.219,1.778l3.827,4.905a.585.585,0,0,0,.462.225h3.291a.586.586,0,0,0,.46-.223L179.871,19.9a1.3,1.3,0,0,0-.215-1.821l-1.581-1.246a1.3,1.3,0,0,0-1.821.215L167.235,28.48A.586.586,0,0,0,167.332,29.3Z" transform="translate(-142.585 -15.258)"/>
    </g>
  </g>
</svg>
